<svg width="25" height="25" viewBox="0 0 25 25" fill="none" xmlns="http://www.w3.org/2000/svg">
<path fill-rule="evenodd" clip-rule="evenodd" d="M6.02803 6.5C6.05955 6.53838 6.11698 6.59665 6.21914 6.67333C6.49263 6.8786 6.95186 7.10599 7.60911 7.31464C8.91205 7.72827 10.774 8 12.875 8C14.976 8 16.838 7.72827 18.1409 7.31464C18.7981 7.10599 19.2574 6.8786 19.5309 6.67333C19.633 6.59665 19.6904 6.53838 19.722 6.5C19.6904 6.46162 19.633 6.40335 19.5309 6.32667C19.2574 6.1214 18.7981 5.89401 18.1409 5.68536C16.838 5.27173 14.976 5 12.875 5C10.774 5 8.91205 5.27173 7.60911 5.68536C6.95186 5.89401 6.49263 6.1214 6.21914 6.32667C6.11698 6.40335 6.05955 6.46162 6.02803 6.5ZM19.75 8.83998C19.4373 8.98218 19.0995 9.10869 18.746 9.22089C17.1988 9.71208 15.1232 10 12.875 10C10.6268 10 8.55121 9.71208 7.00395 9.22089C6.65052 9.10869 6.31273 8.98218 6 8.83998V12.2968C6.01729 12.3263 6.07082 12.3986 6.21762 12.5093C6.48858 12.7138 6.94468 12.9408 7.59988 13.1491C8.89879 13.5621 10.7603 13.8333 12.875 13.8333C14.9897 13.8333 16.8512 13.5621 18.1501 13.1491C18.8053 12.9408 19.2614 12.7138 19.5324 12.5093C19.6792 12.3986 19.7327 12.3263 19.75 12.2968V8.83998ZM19.75 14.6777C19.4403 14.8185 19.1059 14.9439 18.7561 15.0551C17.2113 15.5463 15.1353 15.8333 12.875 15.8333C10.6147 15.8333 8.53871 15.5463 6.99387 15.0551C6.64407 14.9439 6.30974 14.8185 6 14.6777V18.1302C6.01729 18.1596 6.07082 18.2319 6.21762 18.3427C6.48858 18.5472 6.94468 18.7741 7.59988 18.9824C8.89879 19.3954 10.7603 19.6667 12.875 19.6667C14.9897 19.6667 16.8512 19.3954 18.1501 18.9824C18.8053 18.7741 19.2614 18.5472 19.5324 18.3427C19.6792 18.2319 19.7327 18.1596 19.75 18.1302V14.6777ZM21.75 18.1667C21.75 18.9683 21.2433 19.5571 20.7372 19.9391C20.2151 20.333 19.5228 20.6446 18.7561 20.8884C17.2113 21.3796 15.1353 21.6667 12.875 21.6667C10.6147 21.6667 8.53871 21.3796 6.99387 20.8884C6.22719 20.6446 5.53486 20.333 5.01285 19.9391C4.50668 19.5571 4 18.9683 4 18.1667V6.5C4 5.69564 4.51241 5.10701 5.01857 4.7271C5.54208 4.33418 6.23611 4.02287 7.00395 3.77911C8.55121 3.28792 10.6268 3 12.875 3C15.1232 3 17.1988 3.28792 18.746 3.77911C19.5139 4.02287 20.2079 4.33418 20.7314 4.7271C21.2376 5.10701 21.75 5.69564 21.75 6.5V18.1667Z" fill="#E04E39"/>
</svg>
