<svg width="25" height="25" viewBox="0 0 25 25" fill="none" xmlns="http://www.w3.org/2000/svg">
<path d="M12.9873 21.777C9.81557 21.777 6.93959 19.8081 5.75647 16.8198C5.65578 16.5713 5.5488 16.4375 5.25931 16.3802C4.03843 16.138 3.20773 15.0676 3.22032 13.8124C3.2329 12.5954 4.11395 11.5504 5.33483 11.3274C5.55509 11.2892 5.65578 11.1873 5.725 10.9897C5.92009 10.4418 6.1907 9.93203 6.51795 9.44778C6.59346 9.33946 6.61234 9.25663 6.54941 9.12283C5.74388 7.56176 5.90121 6.07079 6.92071 4.66265C7.00252 4.54796 7.10321 4.43964 7.17873 4.32495C7.27942 4.16566 7.36123 4.19752 7.46192 4.33132C7.84581 4.86017 8.26116 5.35716 8.78349 5.75221C9.17367 6.0453 9.60161 6.25557 10.0673 6.39575C10.2058 6.43398 10.3379 6.42761 10.4827 6.383C13.3083 5.47822 15.8696 6.0007 18.1415 7.91858C19.1295 8.75327 19.828 9.8046 20.2811 11.0152C20.363 11.2319 20.4888 11.2956 20.6902 11.3338C21.93 11.5696 22.7921 12.64 22.7795 13.908C22.7607 15.1504 21.8356 16.2336 20.621 16.412C20.4511 16.4375 20.363 16.5012 20.3 16.6605C19.4127 18.9288 17.8394 20.4835 15.5738 21.3246C14.7431 21.6368 13.8747 21.777 12.9873 21.777ZM13.2705 20.7575C13.8055 20.7511 14.5984 20.6237 15.3599 20.3242C17.4681 19.4959 18.8463 17.9667 19.526 15.7876C19.6518 15.3926 19.6518 15.3862 20.0672 15.4117C20.5958 15.4499 21.0489 15.2842 21.395 14.8765C21.8104 14.3858 21.8796 13.7041 21.5964 13.1561C21.2881 12.5635 20.6965 12.2386 19.9791 12.3342C19.6078 12.3788 19.6267 12.3023 19.5511 12.0219C19.2365 10.8942 18.6953 9.88743 17.8709 9.07822C15.7941 7.03291 13.3586 6.51044 10.6085 7.42796C10.4386 7.4853 10.2813 7.50442 10.1051 7.46619C9.11074 7.24955 8.27374 6.75893 7.56261 6.03893C7.36753 5.84141 7.36123 5.84141 7.26054 6.10265C6.87036 7.17946 7.0214 8.16707 7.71994 9.06548C7.8521 9.23114 7.86469 9.33946 7.72624 9.5115C7.1158 10.2634 6.67528 11.1172 6.42984 12.0602C6.3732 12.2832 6.2851 12.3596 6.03966 12.3278C4.82508 12.1749 3.93774 13.2007 4.27757 14.3349C4.49154 15.0485 5.10198 15.4308 5.97044 15.3989C6.38579 15.3862 6.31656 15.3097 6.44243 15.7366C7.36753 18.7696 9.94144 20.7448 13.2705 20.7575Z" fill="#E04E39"/>
<path d="M12.9874 22C11.3889 22 9.83453 21.5158 8.50667 20.6046C7.17251 19.6935 6.15301 18.4127 5.55516 16.9027C5.47964 16.7115 5.42301 16.6414 5.22162 16.6032C3.90005 16.3419 2.98754 15.195 3.00013 13.8124C3.01271 12.4871 3.98187 11.3529 5.29714 11.1108C5.4293 11.0853 5.47335 11.0535 5.5174 10.9133C5.71249 10.3717 5.98939 9.83646 6.33552 9.32035C6.36069 9.28212 6.36698 9.26301 6.36698 9.26301C6.36698 9.26301 6.36698 9.25027 6.3544 9.22478C5.5237 7.61911 5.65585 6.03894 6.74457 4.54159C6.78233 4.49062 6.82009 4.43965 6.86415 4.38867C6.91449 4.32496 6.95854 4.26761 7.0026 4.21027C7.02777 4.15929 7.12846 4.00637 7.30467 4C7.48088 4 7.59415 4.14655 7.63821 4.20389C8.08502 4.82195 8.4752 5.24885 8.91572 5.58018C9.27444 5.85416 9.68349 6.05805 10.1303 6.18549C10.2184 6.21097 10.3065 6.21097 10.4135 6.17274C13.3021 5.24885 15.9452 5.78407 18.28 7.75292C19.2617 8.58124 20.0043 9.65168 20.4826 10.9451C20.5267 11.0598 20.5707 11.0917 20.728 11.1235C22.0811 11.3784 23.0125 12.5317 22.9999 13.9207C22.9873 15.2779 21.9804 16.4439 20.6588 16.6414C20.5581 16.6542 20.5455 16.6733 20.5078 16.7561C19.6016 19.0754 17.9716 20.6874 15.6557 21.5476C14.8376 21.8407 13.9377 22 12.9874 22ZM12.9874 21.554C13.8873 21.554 14.7306 21.4074 15.4984 21.1207C17.6947 20.3051 19.2365 18.7823 20.0924 16.5841C20.1868 16.3483 20.3316 16.2336 20.5833 16.1954C21.6909 16.0297 22.5342 15.0485 22.5468 13.9143C22.5594 12.7419 21.7727 11.7735 20.6399 11.5568C20.426 11.5186 20.1868 11.4294 20.0672 11.0981C19.6141 9.88106 18.9156 8.87434 17.9905 8.09062C15.7879 6.23009 13.2832 5.72673 10.5457 6.59965C10.3506 6.66336 10.1807 6.66336 10.0044 6.61239C9.50728 6.46584 9.05417 6.23646 8.65141 5.93699C8.19201 5.58655 7.77666 5.1469 7.31725 4.51611C7.2795 4.57345 7.24174 4.62442 7.20398 4.66903C7.16622 4.71363 7.13475 4.75823 7.10329 4.80283C6.10896 6.17274 5.98939 7.5554 6.75087 9.02726C6.87673 9.27575 6.78863 9.46053 6.70682 9.58159C6.37957 10.0658 6.12155 10.5692 5.93905 11.0726C5.83836 11.3593 5.66844 11.4995 5.37895 11.5568C4.26506 11.7543 3.45324 12.7101 3.44065 13.8188C3.42807 14.9784 4.19583 15.9469 5.30343 16.1635C5.69361 16.24 5.85094 16.4503 5.96422 16.737C7.10329 19.617 9.92263 21.554 12.9874 21.554ZM13.2706 20.9805C9.89117 20.9678 7.19768 18.9926 6.24112 15.8131C6.22853 15.7685 6.21595 15.7239 6.20336 15.692C6.19707 15.6665 6.19077 15.6474 6.18448 15.6219C6.17819 15.6219 6.1656 15.6219 6.15931 15.6219C6.11526 15.6283 6.05862 15.6283 5.9831 15.6283C5.01395 15.6602 4.3154 15.2142 4.06997 14.405C3.88747 13.806 4.00075 13.2007 4.38463 12.7419C4.7811 12.2641 5.41042 12.0283 6.0712 12.1112C6.15931 12.1239 6.18448 12.1112 6.18448 12.1112C6.18448 12.1112 6.20336 12.092 6.22224 12.0092C6.46767 11.0535 6.91449 10.1678 7.56269 9.3777C7.60674 9.32035 7.61303 9.30124 7.61303 9.30124C7.61303 9.30124 7.60674 9.27575 7.5564 9.20566C6.80751 8.24991 6.64388 7.17947 7.05923 6.02619C7.11587 5.8669 7.17251 5.71398 7.32984 5.68212C7.48717 5.65027 7.59415 5.75858 7.72002 5.87965C8.42486 6.59965 9.22409 7.04566 10.1492 7.24319C10.2751 7.26867 10.4009 7.2623 10.5394 7.21133C13.3902 6.25558 15.9075 6.82903 18.022 8.91257C18.8401 9.7154 19.419 10.7412 19.7589 11.9582C19.7652 11.9901 19.7715 12.0156 19.7841 12.0411C19.7904 12.0665 19.7966 12.0984 19.8029 12.1175C19.8281 12.1175 19.8722 12.1175 19.9477 12.1048C20.7406 12.0028 21.4266 12.3596 21.7853 13.0478C22.1188 13.685 22.0307 14.4623 21.5587 15.0166C21.1811 15.469 20.6714 15.6729 20.0484 15.6283C19.9791 15.6219 19.8596 15.6156 19.8155 15.6219C19.7966 15.6602 19.7652 15.7494 19.74 15.845V15.8513C19.0352 18.1069 17.5877 19.6807 15.4418 20.5281C14.6236 20.8531 13.7866 20.9742 13.2706 20.9805ZM6.21595 15.1696C6.47397 15.1696 6.54319 15.2715 6.625 15.5582C6.63759 15.5901 6.64388 15.6347 6.66276 15.6793C7.56269 18.6612 10.0988 20.5218 13.2706 20.5281C13.7426 20.5218 14.5167 20.4135 15.2844 20.1076C17.2982 19.3111 18.6576 17.8329 19.3247 15.7111V15.7048C19.4757 15.2142 19.5764 15.1441 20.0861 15.1823C20.5644 15.2142 20.942 15.0676 21.2315 14.7235C21.5839 14.303 21.6531 13.7296 21.4014 13.2517C21.1245 12.7292 20.6211 12.4743 20.0043 12.5508C19.5575 12.6081 19.4379 12.468 19.3561 12.1558C19.3498 12.1303 19.3435 12.1048 19.3372 12.0793C19.0226 10.9388 18.4751 9.98301 17.7136 9.23115C15.7312 7.27504 13.365 6.73982 10.6778 7.63186C10.4576 7.70195 10.2625 7.72106 10.0548 7.67646C9.07305 7.46619 8.19201 6.98195 7.44312 6.23646C7.10329 7.22407 7.24803 8.10336 7.88993 8.93168C8.02838 9.10372 8.14795 9.34584 7.89623 9.65805C7.29208 10.4035 6.87044 11.2319 6.64388 12.1239C6.55578 12.468 6.36069 12.6018 6.01457 12.5572C5.49223 12.4935 5.02024 12.6655 4.71817 13.035C4.43497 13.3727 4.35316 13.8315 4.49161 14.2775C4.67412 14.8892 5.20274 15.2142 5.97051 15.1887C6.03344 15.1887 6.08379 15.1823 6.12784 15.1823C6.15931 15.1759 6.19077 15.1696 6.21595 15.1696Z" fill="#E04E39"/>
<path d="M12.9864 18.3936C11.5642 18.3427 10.4377 17.7373 9.65105 16.5204C9.44338 16.1954 9.47484 15.9023 9.73916 15.7239C9.99718 15.5519 10.2867 15.6347 10.4943 15.9596C11.0985 16.8835 11.9481 17.3742 13.0494 17.3614C14.0248 17.3487 14.7989 16.9154 15.3841 16.1253C15.4408 16.0488 15.4848 15.966 15.5415 15.8896C15.7303 15.6219 16.0135 15.5519 16.2589 15.7111C16.498 15.8704 16.561 16.1508 16.3973 16.4248C15.9379 17.2021 15.296 17.7692 14.4653 18.1005C13.9934 18.2917 13.5025 18.4 12.9864 18.3936Z" fill="#E04E39"/>
<path d="M13.0623 18.6166C13.0372 18.6166 13.012 18.6166 12.9805 18.6166H12.9742C11.4576 18.5593 10.2744 17.8966 9.46263 16.6414C9.18573 16.2145 9.24866 15.7812 9.61366 15.5391C9.97867 15.297 10.394 15.4117 10.6709 15.8386C11.2373 16.7051 12.0177 17.1384 12.9994 17.1384C13.012 17.1384 13.0246 17.1384 13.0372 17.1384C13.9119 17.1257 14.6419 16.7434 15.1957 15.9915C15.2209 15.9533 15.2461 15.915 15.2775 15.8704C15.3027 15.8322 15.3279 15.794 15.353 15.7557C15.6111 15.3926 16.0264 15.297 16.3663 15.52C16.7061 15.7494 16.7879 16.1635 16.5739 16.5331C16.0831 17.3614 15.3971 17.954 14.5349 18.3044C14.0315 18.5147 13.5469 18.6166 13.0623 18.6166ZM12.9931 18.1706C13.4399 18.1834 13.893 18.0878 14.3776 17.8966C15.1517 17.5844 15.7621 17.0556 16.2026 16.3101C16.3033 16.1444 16.2781 15.9915 16.1334 15.9023C15.932 15.7685 15.7747 15.9405 15.7181 16.0234C15.6992 16.0552 15.674 16.0871 15.6551 16.1189C15.6237 16.1699 15.5922 16.2145 15.5544 16.2655C14.9188 17.1257 14.0755 17.5717 13.056 17.578C11.8981 17.5908 10.9793 17.0874 10.3185 16.0743C10.1738 15.8577 10.0227 15.8003 9.87168 15.9023C9.81504 15.9405 9.63884 16.0616 9.84651 16.3865C10.5765 17.5334 11.6086 18.1133 12.9931 18.1706Z" fill="#E04E39"/>
<path d="M10.6457 13.5894C10.652 14.0418 10.3059 14.405 9.86537 14.4113C9.43743 14.4177 9.07243 14.0482 9.06614 13.6085C9.05984 13.1689 9.42485 12.7993 9.85908 12.7993C10.287 12.8057 10.6457 13.1625 10.6457 13.5894Z" fill="#E04E39"/>
<path d="M9.85329 14.6343C9.59527 14.6343 9.34984 14.5324 9.16104 14.3413C8.96596 14.1501 8.85268 13.8825 8.84639 13.6085C8.84639 13.3345 8.94708 13.0733 9.14216 12.8758C9.33725 12.6782 9.58898 12.5763 9.85329 12.5763H9.85959C10.4071 12.5763 10.8602 13.0351 10.8665 13.5894C10.8728 14.1628 10.4323 14.6216 9.87217 14.6343C9.86588 14.6343 9.85959 14.6343 9.85329 14.6343ZM9.85959 13.0223C9.70855 13.0223 9.5701 13.086 9.46312 13.1943C9.34984 13.309 9.2932 13.4492 9.2932 13.6085C9.2932 13.7614 9.36243 13.9143 9.46941 14.029C9.57639 14.1374 9.72114 14.1947 9.86588 14.1947C10.1868 14.1883 10.4323 13.9271 10.426 13.5958C10.426 13.2836 10.168 13.0223 9.85959 13.0223Z" fill="#E04E39"/>
<path d="M16.9265 13.6021C16.9265 14.0418 16.5615 14.4177 16.1336 14.4113C15.6931 14.405 15.3469 14.0482 15.3469 13.5958C15.3469 13.1689 15.6993 12.8057 16.1273 12.7993C16.5552 12.7929 16.9202 13.1625 16.9265 13.6021Z" fill="#E04E39"/>
<path d="M16.1399 14.6343H16.1336C15.5672 14.628 15.1267 14.1756 15.1267 13.5958C15.1267 13.0414 15.5735 12.5827 16.121 12.5763C16.1273 12.5763 16.1336 12.5763 16.1336 12.5763C16.3979 12.5763 16.6433 12.6782 16.8384 12.8694C17.0335 13.0669 17.1405 13.3218 17.1468 13.5958C17.1468 13.8697 17.0398 14.1374 16.8447 14.3285C16.6496 14.526 16.3979 14.6343 16.1399 14.6343ZM16.1336 13.0223H16.1273C15.8252 13.0287 15.5672 13.2899 15.5672 13.5958C15.5672 13.9271 15.8189 14.182 16.1336 14.1883C16.2783 14.1883 16.4168 14.131 16.53 14.0163C16.6433 13.9016 16.7063 13.7487 16.7063 13.5958C16.7063 13.4428 16.6433 13.2963 16.53 13.188C16.4231 13.086 16.2846 13.0223 16.1336 13.0223Z" fill="#E04E39"/>
</svg>
