<svg width="49" height="56" viewBox="0 0 49 56" fill="none" xmlns="http://www.w3.org/2000/svg">
<g clip-path="url(#clip0_1_198)">
<path d="M19.2156 12.7431C18.6042 12.6564 18.5751 12.6275 18.8662 12.5986C19.4194 12.5119 20.7004 12.6275 21.603 12.8297C23.6993 13.321 25.5917 14.5924 27.6006 16.8174L28.1247 17.4242L28.8817 17.3086C32.1134 16.7885 35.4325 17.193 38.1984 18.4644C38.9553 18.8112 40.149 19.5047 40.2946 19.678C40.3529 19.7358 40.4402 20.1115 40.4984 20.4871C40.7022 21.8452 40.6149 22.8566 40.1782 23.6368C39.9452 24.0702 39.9452 24.1858 40.0908 24.5614C40.2073 24.8504 40.5567 25.0527 40.8769 25.0527C41.5757 25.0527 42.3035 23.9546 42.6529 22.4231L42.7985 21.8163L43.0605 22.1053C44.5454 23.7523 45.71 26.0351 45.8846 27.6533L45.9429 28.0867L45.6808 27.7111C45.2441 27.0465 44.8365 26.613 44.2833 26.2374C43.2934 25.5728 42.2453 25.3705 39.4794 25.226C36.9756 25.0816 35.5489 24.8793 34.1514 24.4169C31.764 23.6368 30.5412 22.6254 27.7171 18.8979C26.4652 17.2508 25.6791 16.355 24.893 15.6037C23.1752 13.9567 21.4574 13.0898 19.2156 12.7431Z" fill="#E04E39"/>
<path d="M40.9061 16.4128C40.9643 15.3147 41.1099 14.5924 41.4301 13.9278C41.5466 13.6677 41.663 13.4365 41.6921 13.4365C41.7213 13.4365 41.663 13.6388 41.5757 13.87C41.3428 14.5057 41.3137 15.4014 41.4592 16.4128C41.663 17.7131 41.7504 17.8865 43.1479 19.3024C43.7884 19.967 44.5454 20.8049 44.8365 21.1517L45.3315 21.7874L44.8365 21.3251C44.2251 20.7472 42.8276 19.6491 42.5074 19.5046C42.3036 19.3891 42.2744 19.3891 42.1289 19.5335C42.0124 19.6491 41.9833 19.8225 41.9833 20.6605C41.9542 21.9608 41.7795 22.7699 41.3428 23.6078C41.1099 24.0413 41.0807 23.9546 41.2845 23.4634C41.4301 23.0877 41.4592 22.9143 41.4592 21.6718C41.4592 19.1579 41.1681 18.5511 39.3921 17.5397C38.9554 17.2797 38.1984 16.904 37.7617 16.7017C37.2958 16.4995 36.9465 16.3261 36.9756 16.3261C37.0338 16.2683 38.7516 16.7595 39.4212 17.0485C40.4402 17.453 40.6149 17.4819 40.7314 17.453C40.8187 17.3663 40.8769 17.1352 40.9061 16.4128Z" fill="#E04E39"/>
<path d="M20.4095 20.7183C19.1867 19.0423 18.4006 16.4417 18.5753 14.5057L18.6335 13.8989L18.9246 13.9567C19.4487 14.0433 20.3513 14.3901 20.788 14.6502C21.9526 15.3437 22.4766 16.2972 22.9716 18.6667C23.1171 19.3602 23.3209 20.1692 23.4083 20.4293C23.5539 20.8627 24.107 21.8741 24.5729 22.5098C24.8931 22.9721 24.6893 23.2033 23.9615 23.1455C22.8551 23.0299 21.3703 22.0186 20.4095 20.7183Z" fill="#E04E39"/>
<path d="M39.4214 33.2879C33.6567 30.9763 31.6187 28.9824 31.6187 25.6016C31.6187 25.1104 31.6478 24.7059 31.6478 24.7059C31.6769 24.7059 31.8807 24.8792 32.1427 25.0815C33.3073 26.0062 34.6175 26.4107 38.2568 26.9308C40.3822 27.2487 41.605 27.4799 42.7113 27.8555C46.2342 29.0113 48.4178 31.3808 48.9419 34.5882C49.0875 35.5129 49.0001 37.2755 48.7672 38.2002C48.5634 38.9226 47.9811 40.2518 47.8355 40.2807C47.8064 40.2807 47.7482 40.1362 47.7482 39.905C47.69 38.6914 47.0785 37.5356 46.0595 36.6398C44.8367 35.5996 43.2645 34.8194 39.4214 33.2879Z" fill="#E04E39"/>
<path d="M35.3452 34.2415C35.2869 33.808 35.1414 33.259 35.054 33.0279L34.9084 32.5944L35.1705 32.9123C35.549 33.3457 35.8401 33.8658 36.1021 34.5882C36.3059 35.1372 36.3059 35.3106 36.3059 36.2064C36.3059 37.0733 36.2768 37.2755 36.1021 37.7668C35.811 38.5469 35.4616 39.096 34.8793 39.7028C33.8312 40.7719 32.4628 41.3498 30.5121 41.6099C30.1628 41.6388 29.1729 41.7255 28.2994 41.7833C26.1158 41.8989 24.6601 42.13 23.3499 42.5924C23.1752 42.6501 23.0005 42.7079 22.9714 42.679C22.9132 42.6213 23.8158 42.1011 24.5436 41.7544C25.5626 41.2632 26.6108 41.0031 28.9108 40.5985C30.0463 40.4252 31.2109 40.194 31.502 40.0784C34.3844 39.1827 35.811 36.9577 35.3452 34.2415Z" fill="#E04E39"/>
<path d="M37.9946 38.8937C37.2377 37.2467 37.063 35.6863 37.4706 34.2126C37.5288 34.0681 37.587 33.9236 37.6453 33.9236C37.7035 33.9236 37.8782 34.0103 38.0529 34.1259C38.4023 34.3571 39.1301 34.7616 40.9935 35.773C43.3518 37.0444 44.691 38.0268 45.6227 39.1538C46.4379 40.1362 46.9329 41.2632 47.1658 42.6502C47.3113 43.4304 47.224 45.3086 47.0202 46.0888C46.3797 48.5449 44.9239 50.5098 42.7986 51.6367C42.4783 51.8101 42.2163 51.9257 42.1872 51.9257C42.158 51.9257 42.2745 51.6368 42.4492 51.29C43.1479 49.8163 43.2353 48.4004 42.7112 46.8112C42.391 45.8287 41.7213 44.644 40.3821 42.6502C38.7807 40.3385 38.4023 39.7317 37.9946 38.8937Z" fill="#E04E39"/>
<path d="M16.3043 47.7358C18.4588 45.9442 21.1082 44.6728 23.5538 44.2683C24.602 44.0949 26.3488 44.1527 27.3096 44.4128C28.8527 44.8173 30.2502 45.6842 30.9781 46.7533C31.6768 47.7936 31.9971 48.6893 32.3173 50.6832C32.4338 51.4633 32.5794 52.2724 32.6085 52.4458C32.8414 53.486 33.3072 54.2951 33.8895 54.7286C34.7921 55.3932 36.3643 55.4221 37.9074 54.8441C38.1694 54.7575 38.4023 54.6708 38.4023 54.6997C38.4605 54.7575 37.6744 55.2776 37.1504 55.5376C36.4225 55.9133 35.8402 56.0289 35.0541 56.0289C33.6566 56.0289 32.4629 55.3065 31.5021 53.8617C31.2983 53.5727 30.8907 52.7348 30.5414 51.9546C29.5223 49.614 28.9983 48.9205 27.8046 48.1403C26.7564 47.4757 25.4172 47.3312 24.3982 47.8225C23.0589 48.4582 22.7095 50.163 23.6412 51.2033C24.0197 51.6367 24.7184 51.9835 25.3007 52.0702C26.378 52.2146 27.3096 51.3767 27.3096 50.3075C27.3096 49.614 27.0476 49.2095 26.3488 48.8916C25.4172 48.4871 24.3982 48.9494 24.4273 49.8452C24.4273 50.2208 24.602 50.452 24.9805 50.6254C25.2134 50.7409 25.2134 50.7409 25.0387 50.7121C24.1944 50.5387 23.9906 49.4984 24.6602 48.8338C25.4754 48.0247 27.1932 48.3715 27.7755 49.4984C28.0084 49.9608 28.0375 50.8854 27.8337 51.4633C27.3387 52.7348 25.9412 53.3994 24.5146 53.0237C23.5538 52.7637 23.1462 52.5036 21.9816 51.3189C19.9436 49.2384 19.1575 48.8338 16.246 48.4004L15.6929 48.3137L16.3043 47.7358Z" fill="#E04E39"/>
<path fill-rule="evenodd" clip-rule="evenodd" d="M0.989973 1.24252C7.77369 9.42002 18.2259 22.1342 18.7499 22.8277C19.1866 23.4056 19.012 23.9546 18.2841 24.3591C17.8765 24.5903 17.0322 24.8215 16.6246 24.8215C16.1587 24.8215 15.6055 24.5903 15.227 24.2147C14.965 23.9546 13.8295 22.3075 11.2675 18.3488C9.31677 15.3148 7.65723 12.8008 7.62812 12.7719C7.51166 12.7141 7.51166 12.7141 11.0637 19.0134C13.3055 22.9721 14.0333 24.388 14.0333 24.5614C14.0333 24.9371 13.9169 25.1393 13.4511 25.6594C12.665 26.5263 12.3156 27.5088 12.0536 29.5604C11.7624 31.8431 10.9763 33.4613 8.73448 36.2064C7.42432 37.8246 7.22051 38.1135 6.90025 38.7781C6.49265 39.5872 6.37619 40.0495 6.31796 41.0898C6.25973 42.1878 6.37619 42.8813 6.69645 43.9216C6.9876 44.8462 7.30786 45.453 8.09395 46.6378C8.76359 47.678 9.1712 48.4582 9.1712 48.7472C9.1712 48.9783 9.22943 48.9783 10.2776 48.7472C12.7814 48.1693 14.8486 47.1868 15.984 45.9732C16.6828 45.2219 16.8575 44.8173 16.8575 43.7771C16.8575 43.1125 16.8284 42.968 16.6537 42.5635C16.3625 41.9278 15.8093 41.4076 14.6156 40.5986C13.0434 39.5294 12.3738 38.6625 12.1991 37.5067C12.0536 36.5243 12.2282 35.8597 13.1017 34.0392C14.0042 32.161 14.2372 31.3808 14.3827 29.4737C14.4701 28.2601 14.6156 27.7688 14.965 27.3932C15.3435 26.9887 15.6638 26.8442 16.5663 26.7286C18.0512 26.5263 19.012 26.1507 19.7689 25.4283C20.4386 24.8215 20.7297 24.2147 20.7588 23.3189L20.788 22.6543L20.4095 22.2497C19.0411 20.6894 0.0874184 0 7.43314e-05 0C-0.0290403 0 0.436794 0.54902 0.989973 1.24252ZM9.92818 42.3323C10.2484 41.7833 10.0738 41.0898 9.54969 40.743C9.05474 40.4252 8.29776 40.5697 8.29776 41.0031C8.29776 41.1187 8.35599 41.2343 8.53067 41.2921C8.79271 41.4365 8.82182 41.581 8.61802 41.8989C8.41422 42.2167 8.41422 42.5057 8.67625 42.708C9.08385 43.0258 9.63703 42.8524 9.92818 42.3323Z" fill="#E04E39"/>
<path fill-rule="evenodd" clip-rule="evenodd" d="M21.7194 27.1331C21.0207 27.3354 20.351 28.0867 20.1472 28.838C20.0308 29.3003 20.089 30.1383 20.2928 30.3984C20.6131 30.8029 20.9042 30.9185 21.7194 30.9185C23.3207 30.9185 24.6891 30.225 24.8347 29.387C24.9803 28.6935 24.3689 27.7399 23.5245 27.3065C23.0878 27.0753 22.1853 26.9887 21.7194 27.1331ZM23.5828 28.5779C23.8157 28.2312 23.7284 27.8555 23.2916 27.5955C22.5055 27.1042 21.3118 27.5088 21.3118 28.2601C21.3118 28.6357 21.9232 29.0403 22.5055 29.0403C22.884 29.0403 23.4081 28.8091 23.5828 28.5779Z" fill="#E04E39"/>
</g>
<defs>
<clipPath id="clip0_1_198">
<rect width="49" height="56" fill="white"/>
</clipPath>
</defs>
</svg>
