<svg width="25" height="25" viewBox="0 0 25 25" fill="none" xmlns="http://www.w3.org/2000/svg">
<path fill-rule="evenodd" clip-rule="evenodd" d="M5 5V21H21V5H5ZM4 3C3.44772 3 3 3.44772 3 4V22C3 22.5523 3.44772 23 4 23H22C22.5523 23 23 22.5523 23 22V4C23 3.44772 22.5523 3 22 3H4Z" fill="#E04E39"/>
<path fill-rule="evenodd" clip-rule="evenodd" d="M22 11H4V9H22V11Z" fill="#E04E39"/>
<path fill-rule="evenodd" clip-rule="evenodd" d="M16.2929 13.2929C16.6834 12.9024 17.3166 12.9024 17.7071 13.2929L19.7071 15.2929C20.0976 15.6834 20.0976 16.3166 19.7071 16.7071L17.7071 18.7071C17.3166 19.0976 16.6834 19.0976 16.2929 18.7071C15.9024 18.3166 15.9024 17.6834 16.2929 17.2929L17.5858 16L16.2929 14.7071C15.9024 14.3166 15.9024 13.6834 16.2929 13.2929Z" fill="#E04E39"/>
<path fill-rule="evenodd" clip-rule="evenodd" d="M9.70711 13.2929C9.31658 12.9024 8.68342 12.9024 8.29289 13.2929L6.29289 15.2929C5.90237 15.6834 5.90237 16.3166 6.29289 16.7071L8.29289 18.7071C8.68342 19.0976 9.31658 19.0976 9.70711 18.7071C10.0976 18.3166 10.0976 17.6834 9.70711 17.2929L8.41421 16L9.70711 14.7071C10.0976 14.3166 10.0976 13.6834 9.70711 13.2929Z" fill="#E04E39"/>
<path fill-rule="evenodd" clip-rule="evenodd" d="M13.81 13.0352C14.3483 13.1586 14.6669 13.6906 14.5216 14.2234L13.4307 18.2234C13.2854 18.7562 12.7312 19.0881 12.1928 18.9648C11.6545 18.8414 11.3359 18.3094 11.4812 17.7766L12.5721 13.7766C12.7175 13.2438 13.2717 12.9119 13.81 13.0352Z" fill="#E04E39"/>
<path d="M8 7C8 7.55228 7.55228 8 7 8C6.44772 8 6 7.55228 6 7C6 6.44772 6.44772 6 7 6C7.55228 6 8 6.44772 8 7Z" fill="#E04E39"/>
<path d="M11 7C11 7.55228 10.5523 8 10 8C9.44772 8 9 7.55228 9 7C9 6.44772 9.44772 6 10 6C10.5523 6 11 6.44772 11 7Z" fill="#E04E39"/>
<path d="M14 7C14 7.55228 13.5523 8 13 8C12.4477 8 12 7.55228 12 7C12 6.44772 12.4477 6 13 6C13.5523 6 14 6.44772 14 7Z" fill="#E04E39"/>
</svg>
