<svg width="25" height="25" viewBox="0 0 25 25" fill="none" xmlns="http://www.w3.org/2000/svg">
<path fill-rule="evenodd" clip-rule="evenodd" d="M5.22222 4C4.54721 4 4 4.54721 4 5.22222V20.7778C4 21.4528 4.54721 22 5.22222 22H20.7778C21.4528 22 22 21.4528 22 20.7778V5.22222C22 4.54721 21.4528 4 20.7778 4H5.22222ZM2 5.22222C2 3.44264 3.44264 2 5.22222 2H20.7778C22.5574 2 24 3.44264 24 5.22222V20.7778C24 22.5574 22.5574 24 20.7778 24H5.22222C3.44264 24 2 22.5574 2 20.7778V5.22222ZM6.44444 7.44444C6.44444 6.89216 6.89216 6.44444 7.44444 6.44444H10.7778C11.3301 6.44444 11.7778 6.89216 11.7778 7.44444V17.4444C11.7778 17.9967 11.3301 18.4444 10.7778 18.4444H7.44444C6.89216 18.4444 6.44444 17.9967 6.44444 17.4444V7.44444ZM8.44444 8.44444V16.4444H9.77778V8.44444H8.44444ZM14.2222 7.44444C14.2222 6.89216 14.6699 6.44444 15.2222 6.44444H18.5556C19.1078 6.44444 19.5556 6.89216 19.5556 7.44444V13C19.5556 13.5523 19.1078 14 18.5556 14H15.2222C14.6699 14 14.2222 13.5523 14.2222 13V7.44444ZM16.2222 8.44444V12H17.5556V8.44444H16.2222Z" fill="#E04E39"/>
</svg>
